<?xml version="1.0" standalone="no"?>
<!DOCTYPE svg PUBLIC "-//W3C//DTD SVG 20010904//EN"
 "http://www.w3.org/TR/2001/REC-SVG-20010904/DTD/svg10.dtd">
<svg version="1.0" xmlns="http://www.w3.org/2000/svg"
 width="300.000000pt" height="300.000000pt" viewBox="0 0 300.000000 300.000000"
 preserveAspectRatio="xMidYMid meet">
<metadata>
Created by potrace 1.10, written by Peter Selinger 2001-2011
</metadata>
<g transform="translate(0.000000,300.000000) scale(0.100000,-0.100000)"
fill="#000000" stroke="none">
<path d="M1385 2731 c-220 -114 -444 -169 -722 -178 l-172 -6 -7 -76 c-14
-138 -8 -546 10 -680 32 -239 85 -426 160 -566 30 -56 45 -98 50 -140 16 -127
86 -272 187 -388 52 -58 69 -69 69 -42 0 27 16 16 48 -33 38 -59 139 -170 194
-214 37 -29 41 -30 50 -14 8 15 21 6 96 -66 48 -46 101 -93 118 -105 l31 -23
74 63 c41 35 93 85 115 110 44 50 54 56 54 32 0 -8 4 -15 10 -15 21 0 119 91
183 170 42 52 75 85 87 85 39 0 140 122 200 243 30 61 60 163 60 206 0 15 22
70 49 124 149 297 212 672 195 1153 l-7 176 -165 7 c-288 12 -516 67 -742 179
-57 29 -107 53 -110 53 -3 1 -54 -24 -115 -55z m226 -20 c242 -115 461 -169
720 -178 l166 -6 6 -151 c19 -456 -48 -859 -189 -1137 -34 -68 -51 -116 -60
-172 -8 -48 -27 -109 -49 -155 -36 -76 -115 -191 -156 -227 l-22 -20 5 27 c3
16 1 28 -3 28 -5 0 -9 -4 -9 -9 0 -13 -103 -138 -183 -220 -72 -74 -72 -74
-75 -44 l-3 30 -67 -65 c-59 -56 -151 -132 -190 -156 -16 -10 -85 41 -189 141
l-82 78 -3 -33 -3 -34 -25 28 c-14 15 -19 24 -11 19 9 -5 12 -4 7 3 -4 7 -14
12 -22 12 -8 0 -14 3 -14 8 0 4 -13 21 -28 38 -60 70 -71 83 -82 103 -6 12
-15 19 -21 16 -5 -4 -8 -3 -7 2 2 4 -6 17 -17 28 -11 11 -28 32 -37 45 l-17
25 0 -27 c-1 -16 -5 -28 -10 -28 -9 0 -66 70 -66 82 0 4 -9 14 -20 23 -11 9
-13 13 -5 9 8 -4 4 4 -9 16 -53 52 -134 294 -115 343 3 10 1 17 -5 17 -14 0
-87 146 -118 235 -93 274 -116 544 -92 1105 1 12 23 16 127 18 295 7 572 76
785 196 34 19 67 35 73 35 6 1 58 -21 115 -48z"/>
<path d="M1490 2741 c0 -14 128 -77 214 -105 91 -31 115 -28 32 3 -31 11 -89
37 -128 57 -93 46 -118 56 -118 45z"/>
<path d="M1390 2582 c-182 -91 -372 -141 -615 -162 -87 -8 -135 -16 -145 -26
-23 -23 -21 -510 3 -654 10 -58 20 -118 22 -135 l5 -30 -10 30 c-27 79 -42
234 -48 475 -6 265 -18 273 -21 16 -2 -136 8 -263 31 -395 6 -35 12 -75 13
-90 2 -14 12 -60 24 -101 12 -41 23 -79 24 -85 9 -31 48 -104 63 -116 16 -13
16 -12 2 16 -20 39 -78 214 -78 234 1 9 16 -29 34 -84 18 -55 40 -113 49 -128
l15 -28 20 33 c14 24 140 267 180 348 1 3 -21 13 -49 23 -58 21 -123 81 -132
123 -15 66 -19 231 -8 286 15 72 69 136 143 169 48 21 69 24 244 27 208 4 247
-3 262 -51 4 -12 5 -339 2 -727 -3 -388 -7 -653 -10 -590 l-4 115 -3 -108 c-4
-106 -10 -123 -35 -89 -7 9 -29 29 -48 43 -19 15 -48 39 -64 53 -27 26 -28 29
-17 71 7 27 11 154 11 328 0 316 4 297 -68 297 -62 -1 -55 10 -204 -310 -19
-41 -54 -99 -76 -129 -47 -62 -48 -60 29 -157 112 -142 360 -352 523 -444 l56
-32 77 47 c111 67 215 148 312 240 98 93 199 209 225 258 l19 34 -41 54 c-22
30 -59 97 -82 149 -23 52 -62 135 -87 183 -49 95 -64 107 -133 107 l-38 0 -7
-266 c-7 -248 -5 -332 10 -394 6 -24 6 -24 -7 -5 -8 12 -15 67 -19 140 l-6
120 1 -125 c1 -69 5 -132 9 -141 6 -13 -11 -33 -75 -87 l-83 -70 -5 741 -5
742 90 7 c169 14 381 -4 445 -38 42 -21 81 -65 102 -112 16 -36 20 -67 20
-173 0 -112 -2 -134 -22 -174 -25 -52 -82 -99 -141 -117 l-38 -11 30 -43 c29
-43 119 -217 119 -231 0 -4 14 -32 31 -62 l31 -55 24 58 c75 184 117 404 129
671 8 174 -5 343 -28 360 -9 7 -79 18 -154 24 -232 21 -426 72 -628 165 l-90
41 -105 -53z m211 -21 c186 -89 353 -132 599 -155 84 -8 155 -18 159 -21 12
-13 6 -488 -7 -580 -23 -153 -72 -350 -105 -422 -11 -24 -27 -31 -27 -13 0 16
-122 280 -129 280 -3 0 -12 9 -18 19 -11 17 -7 22 42 46 62 30 107 79 124 134
16 56 14 267 -4 327 -17 60 -69 114 -140 146 -47 21 -65 23 -304 26 l-254 4 7
-24 c4 -12 10 -360 12 -773 4 -567 8 -749 16 -747 7 2 50 36 96 75 46 40 92
79 103 87 16 13 18 20 9 50 -6 20 -10 162 -10 327 l0 293 45 0 c41 0 47 -3 70
-40 14 -21 57 -109 96 -194 39 -85 86 -172 105 -194 l33 -40 -40 -58 c-54 -77
-234 -261 -329 -334 -99 -75 -229 -160 -247 -160 -17 0 -175 105 -268 178 -92
73 -233 210 -301 294 l-55 66 43 64 c24 35 76 135 116 223 40 88 79 167 85
176 7 9 31 18 55 21 l42 6 0 -305 c0 -208 -4 -311 -11 -326 -12 -22 -18 -16
91 -110 19 -17 54 -48 77 -69 24 -21 47 -38 53 -38 7 0 10 242 10 739 0 730 0
739 -21 764 -33 43 -77 50 -275 45 -154 -4 -187 -8 -235 -27 -80 -31 -143 -99
-159 -174 -17 -75 -9 -291 13 -332 22 -43 65 -81 120 -105 46 -21 57 -33 37
-45 -5 -3 -43 -76 -84 -161 -42 -85 -80 -153 -85 -150 -19 12 -72 194 -96 327
-36 208 -45 658 -14 696 7 8 33 13 65 13 60 0 265 25 334 41 110 26 243 73
345 123 61 30 111 55 111 55 1 1 48 -21 105 -48z"/>
<path d="M657 2503 c18 -2 50 -2 70 0 21 2 7 4 -32 4 -38 0 -55 -2 -38 -4z"/>
<path d="M1071 2315 c3 -2 66 -6 141 -7 120 -3 139 -5 158 -23 12 -11 26 -29
31 -40 7 -16 8 -15 6 10 -4 51 -47 65 -206 65 -74 0 -132 -2 -130 -5z"/>
<path d="M1013 2165 c-55 -24 -68 -56 -68 -170 0 -157 30 -185 198 -185 l94 0
6 48 c7 66 8 240 1 285 l-6 37 -96 0 c-60 -1 -109 -6 -129 -15z m207 -171 l0
-166 -106 4 c-102 3 -107 4 -130 31 -22 25 -24 37 -24 118 0 149 28 175 193
178 l67 1 0 -166z"/>
<path d="M1760 1995 l0 -185 98 0 c164 0 197 31 197 185 0 155 -32 185 -195
185 l-100 0 0 -185z m205 151 c53 -22 67 -61 63 -172 -4 -129 -13 -137 -149
-144 -55 -3 -103 -3 -105 -1 -2 2 -4 78 -4 168 l0 163 80 0 c47 0 95 -6 115
-14z"/>
<path d="M921 2000 c-9 -123 11 -179 72 -203 35 -15 197 -22 197 -10 0 4 -37
9 -82 11 -134 4 -168 34 -178 160 -4 42 -8 61 -9 42z"/>
<path d="M2086 1565 c23 -47 47 -100 53 -118 15 -43 70 -131 78 -123 3 3 1 11
-5 18 -5 7 -34 65 -64 128 -58 123 -89 180 -99 180 -3 0 13 -38 37 -85z"/>
<path d="M1403 1510 c0 -36 2 -50 4 -32 2 17 2 47 0 65 -2 17 -4 3 -4 -33z"/>
<path d="M1398 1388 c-3 -29 -1 -57 4 -62 4 -6 8 18 8 52 0 76 -7 81 -12 10z"/>
<path d="M1398 1253 c-1 -32 0 -85 3 -118 4 -47 6 -34 7 58 2 123 -4 158 -10
60z"/>
<path d="M847 1133 c21 -59 211 -263 341 -366 95 -76 261 -186 290 -194 16 -4
38 1 61 13 47 25 229 152 237 166 4 7 -8 0 -27 -14 -53 -41 -232 -148 -246
-148 -19 0 -163 92 -258 164 -106 80 -275 244 -337 329 -49 65 -74 85 -61 50z"/>
</g>
</svg>
